<svg width="12" height="18" viewBox="0 0 12 18" fill="none" xmlns="http://www.w3.org/2000/svg">
<g clip-path="url(#clip0_237_2162)">
<path d="M7.875 10.05L5.075 8.425C4.95 8.35 4.825 8.35 4.7 8.425C4.575 8.475 4.5 8.6 4.5 8.75V12C4.5 12.125 4.575 12.25 4.7 12.325C4.75 12.35 4.825 12.375 4.875 12.375C4.95 12.375 5 12.35 5.075 12.325L7.875 10.7C8 10.625 8.05 10.5 8.05 10.375C8.05 10.25 7.975 10.125 7.875 10.05ZM10.975 4C10.35 3.4 9.6 3 7.925 3H4.05C2.4 3 1.65 3.4 1 4.025C0.4 4.65 0 5.4 0 7.05V10.925C0 12.575 0.4 13.35 1.025 13.975C1.65 14.575 2.4 14.975 4.075 14.975H7.95C9.6 14.975 10.375 14.575 11 13.95C11.6 13.325 12 12.575 12 10.9V7.05C12 5.4 11.6 4.65 10.975 4ZM7.95 3.75C9.525 3.75 10.05 4.15 10.45 4.55C10.75 4.85 11.025 5.225 11.175 6H8.85L7.575 3.75H7.95ZM4.05 3.75H6.675L7.95 6H4.95L3.675 3.75H4.05ZM1.55 4.55C1.825 4.275 2.175 4 2.875 3.85L4.1 6H0.825C0.975 5.225 1.25 4.85 1.55 4.55ZM11.25 10.95C11.25 12.525 10.85 13.05 10.45 13.45C10.05 13.85 9.5 14.25 7.95 14.25H4.05C2.475 14.25 1.95 13.85 1.55 13.45C1.15 13.05 0.75 12.5 0.75 10.95V6.75H11.25V10.95Z" fill="#8E8E8E"/>
</g>
<defs>
<clipPath id="clip0_237_2162">
<rect width="12" height="12" fill="white" transform="translate(0 3)"/>
</clipPath>
</defs>
</svg>
